<?xml version="1.0" encoding="UTF-8"?>
<!DOCTYPE svg
PUBLIC "-//W3C//DTD SVG 1.1//EN"
       "http://www.w3.org/Graphics/SVG/1.1/DTD/svg11.dtd">
<svg viewBox="185 109 913 621" width="728px" height="512px" xmlns="http://www.w3.org/2000/svg" version="1.1">
   <line x1="572" y1="174" x2="582" y2="174" style="stroke:#0b0;stroke-width:1;"/>
   <line x1="574" y1="470" x2="564" y2="470" style="stroke:#0b0;stroke-width:1;"/>
   <line x1="582" y1="174" x2="574" y2="470" style="stroke:#0b0;stroke-width:1;"/>
   <line x1="579.5" y1="174" x2="575.96446609407" y2="177.53553390593" style="stroke:#0b0;stroke-width:2;"/>
   <line x1="579.5" y1="174" x2="575.96446609407" y2="170.46446609407" style="stroke:#0b0;stroke-width:2;"/>
   <line x1="569" y1="470" x2="572.53553390593" y2="473.53553390593" style="stroke:#0b0;stroke-width:2;"/>
   <line x1="569" y1="470" x2="572.53553390593" y2="466.46446609407" style="stroke:#0b0;stroke-width:2;"/>
   <line x1="476" y1="194" x2="466" y2="194" style="stroke:#0b0;stroke-width:1;"/>
   <line x1="286" y1="201" x2="276" y2="201" style="stroke:#0b0;stroke-width:1;"/>
   <line x1="466" y1="194" x2="286" y2="201" style="stroke:#0b0;stroke-width:1;"/>
   <line x1="468.5" y1="194" x2="472.03553390593" y2="197.53553390593" style="stroke:#0b0;stroke-width:2;"/>
   <line x1="468.5" y1="194" x2="472.03553390593" y2="190.46446609407" style="stroke:#0b0;stroke-width:2;"/>
   <line x1="281" y1="201" x2="284.53553390593" y2="204.53553390593" style="stroke:#0b0;stroke-width:2;"/>
   <line x1="281" y1="201" x2="284.53553390593" y2="197.46446609407" style="stroke:#0b0;stroke-width:2;"/>
   <line x1="276" y1="221" x2="286" y2="221" style="stroke:#cb0;stroke-width:1;"/>
   <line x1="447" y1="470" x2="457" y2="470" style="stroke:#cb0;stroke-width:1;"/>
   <line x1="286" y1="221" x2="447" y2="470" style="stroke:#cb0;stroke-width:1;"/>
   <line x1="283.5" y1="221" x2="279.96446609407" y2="224.53553390593" style="stroke:#cb0;stroke-width:2;"/>
   <line x1="283.5" y1="221" x2="279.96446609407" y2="217.46446609407" style="stroke:#cb0;stroke-width:2;"/>
   <line x1="452" y1="470" x2="448.46446609407" y2="473.53553390593" style="stroke:#cb0;stroke-width:2;"/>
   <line x1="452" y1="470" x2="448.46446609407" y2="466.46446609407" style="stroke:#cb0;stroke-width:2;"/>
   <line x1="741" y1="475" x2="731" y2="475" style="stroke:#b0b;stroke-width:1;"/>
   <line x1="740" y1="271" x2="750" y2="271" style="stroke:#b0b;stroke-width:1;"/>
   <line x1="731" y1="475" x2="740" y2="271" style="stroke:#b0b;stroke-width:1;"/>
   <line x1="733.5" y1="475" x2="737.03553390593" y2="478.53553390593" style="stroke:#b0b;stroke-width:2;"/>
   <line x1="733.5" y1="475" x2="737.03553390593" y2="471.46446609407" style="stroke:#b0b;stroke-width:2;"/>
   <line x1="745" y1="271" x2="741.46446609407" y2="274.53553390593" style="stroke:#b0b;stroke-width:2;"/>
   <line x1="745" y1="271" x2="741.46446609407" y2="267.46446609407" style="stroke:#b0b;stroke-width:2;"/>
   <line x1="741" y1="455" x2="731" y2="455" style="stroke:#b0b;stroke-width:1;"/>
   <line x1="574" y1="470" x2="564" y2="470" style="stroke:#b0b;stroke-width:1;"/>
   <line x1="731" y1="455" x2="574" y2="470" style="stroke:#b0b;stroke-width:1;"/>
   <line x1="733.5" y1="455" x2="737.03553390593" y2="458.53553390593" style="stroke:#b0b;stroke-width:2;"/>
   <line x1="733.5" y1="455" x2="737.03553390593" y2="451.46446609407" style="stroke:#b0b;stroke-width:2;"/>
   <line x1="569" y1="470" x2="572.53553390593" y2="473.53553390593" style="stroke:#b0b;stroke-width:2;"/>
   <line x1="569" y1="470" x2="572.53553390593" y2="466.46446609407" style="stroke:#b0b;stroke-width:2;"/>
   <line x1="202" y1="440" x2="192" y2="440" style="stroke:#333;stroke-width:1;"/>
   <line x1="190" y1="556" x2="200" y2="556" style="stroke:#333;stroke-width:1;"/>
   <line x1="192" y1="440" x2="190" y2="556" style="stroke:#333;stroke-width:1;"/>
   <line x1="194.5" y1="440" x2="198.03553390593" y2="443.53553390593" style="stroke:#333;stroke-width:2;"/>
   <line x1="194.5" y1="440" x2="198.03553390593" y2="436.46446609407" style="stroke:#333;stroke-width:2;"/>
   <line x1="195" y1="556" x2="191.46446609407" y2="559.53553390593" style="stroke:#333;stroke-width:2;"/>
   <line x1="195" y1="556" x2="191.46446609407" y2="552.46446609407" style="stroke:#333;stroke-width:2;"/>
   <line x1="305" y1="460" x2="315" y2="460" style="stroke:#bbb;stroke-width:1;"/>
   <line x1="447" y1="470" x2="457" y2="470" style="stroke:#bbb;stroke-width:1;"/>
   <line x1="315" y1="460" x2="447" y2="470" style="stroke:#bbb;stroke-width:1;"/>
   <line x1="312.5" y1="460" x2="308.96446609407" y2="463.53553390593" style="stroke:#bbb;stroke-width:2;"/>
   <line x1="312.5" y1="460" x2="308.96446609407" y2="456.46446609407" style="stroke:#bbb;stroke-width:2;"/>
   <line x1="452" y1="470" x2="448.46446609407" y2="473.53553390593" style="stroke:#bbb;stroke-width:2;"/>
   <line x1="452" y1="470" x2="448.46446609407" y2="466.46446609407" style="stroke:#bbb;stroke-width:2;"/>
   <rect width="96" height="20" x="476" y="124" style="fill:#007;stroke:black;"/>
   <text width="96" height="20" x="481" y="138" style="fill:#fff;" font-family="Arial" font-size="16px"> comentarios</text>
   <rect width="96" height="20" x="476" y="144" style="fill:#aea;stroke:black;"/>
   <text width="96" height="20" x="481" y="158" style="fill:black;" font-family="Arial" font-size="16px">id</text>
   <rect width="96" height="20" x="476" y="164" style="fill:none;stroke:black;"/>
   <text width="96" height="20" x="481" y="178" style="fill:black;" font-family="Arial" font-size="16px">autor_id</text>
   <rect width="96" height="20" x="476" y="184" style="fill:none;stroke:black;"/>
   <text width="96" height="20" x="481" y="198" style="fill:black;" font-family="Arial" font-size="16px">entrada_id</text>
   <rect width="96" height="20" x="476" y="204" style="fill:none;stroke:black;"/>
   <text width="96" height="20" x="481" y="218" style="fill:black;" font-family="Arial" font-size="16px">titulo</text>
   <rect width="96" height="20" x="476" y="224" style="fill:none;stroke:black;"/>
   <text width="96" height="20" x="481" y="238" style="fill:black;" font-family="Arial" font-size="16px">texto</text>
   <rect width="96" height="20" x="476" y="244" style="fill:none;stroke:black;"/>
   <text width="96" height="20" x="481" y="258" style="fill:black;" font-family="Arial" font-size="16px">fecha</text>
   <rect width="71" height="20" x="205" y="171" style="fill:#007;stroke:black;"/>
   <text width="71" height="20" x="210" y="185" style="fill:#fff;" font-family="Arial" font-size="16px"> entradas</text>
   <rect width="71" height="20" x="205" y="191" style="fill:#aea;stroke:black;"/>
   <text width="71" height="20" x="210" y="205" style="fill:black;" font-family="Arial" font-size="16px">id</text>
   <rect width="71" height="20" x="205" y="211" style="fill:none;stroke:black;"/>
   <text width="71" height="20" x="210" y="225" style="fill:black;" font-family="Arial" font-size="16px">autor_id</text>
   <rect width="71" height="20" x="205" y="231" style="fill:none;stroke:black;"/>
   <text width="71" height="20" x="210" y="245" style="fill:black;" font-family="Arial" font-size="16px">url</text>
   <rect width="71" height="20" x="205" y="251" style="fill:none;stroke:black;"/>
   <text width="71" height="20" x="210" y="265" style="fill:black;" font-family="Arial" font-size="16px">titulo</text>
   <rect width="71" height="20" x="205" y="271" style="fill:none;stroke:black;"/>
   <text width="71" height="20" x="210" y="285" style="fill:black;" font-family="Arial" font-size="16px">texto</text>
   <rect width="71" height="20" x="205" y="291" style="fill:none;stroke:black;"/>
   <text width="71" height="20" x="210" y="305" style="fill:black;" font-family="Arial" font-size="16px">fecha</text>
   <rect width="71" height="20" x="205" y="311" style="fill:none;stroke:black;"/>
   <text width="71" height="20" x="210" y="325" style="fill:black;" font-family="Arial" font-size="16px">activa</text>
   <rect width="116" height="20" x="750" y="241" style="fill:#007;stroke:black;"/>
   <text width="116" height="20" x="755" y="255" style="fill:#fff;" font-family="Arial" font-size="16px"> privilegios</text>
   <rect width="116" height="20" x="750" y="261" style="fill:#aea;stroke:black;"/>
   <text width="116" height="20" x="755" y="275" style="fill:black;" font-family="Arial" font-size="16px">idPrivilegio</text>
   <rect width="116" height="20" x="750" y="281" style="fill:none;stroke:black;"/>
   <text width="116" height="20" x="755" y="295" style="fill:black;" font-family="Arial" font-size="16px">codePrivilegio</text>
   <rect width="116" height="20" x="750" y="301" style="fill:none;stroke:black;"/>
   <text width="116" height="20" x="755" y="315" style="fill:black;" font-family="Arial" font-size="16px">namePrivilegio</text>
   <rect width="83" height="20" x="200" y="526" style="fill:#007;stroke:black;"/>
   <text width="83" height="20" x="205" y="540" style="fill:#fff;" font-family="Arial" font-size="16px"> roles</text>
   <rect width="83" height="20" x="200" y="546" style="fill:#aea;stroke:black;"/>
   <text width="83" height="20" x="205" y="560" style="fill:black;" font-family="Arial" font-size="16px">idRoles</text>
   <rect width="83" height="20" x="200" y="566" style="fill:none;stroke:black;"/>
   <text width="83" height="20" x="205" y="580" style="fill:black;" font-family="Arial" font-size="16px">codeRole</text>
   <rect width="83" height="20" x="200" y="586" style="fill:none;stroke:black;"/>
   <text width="83" height="20" x="205" y="600" style="fill:black;" font-family="Arial" font-size="16px">nameRole</text>
   <rect width="107" height="20" x="457" y="440" style="fill:#007;stroke:black;"/>
   <text width="107" height="20" x="462" y="454" style="fill:#fff;" font-family="Arial" font-size="16px"> usuarios</text>
   <rect width="107" height="20" x="457" y="460" style="fill:#aea;stroke:black;"/>
   <text width="107" height="20" x="462" y="474" style="fill:black;" font-family="Arial" font-size="16px">id</text>
   <rect width="107" height="20" x="457" y="480" style="fill:none;stroke:black;"/>
   <text width="107" height="20" x="462" y="494" style="fill:black;" font-family="Arial" font-size="16px">nombre</text>
   <rect width="107" height="20" x="457" y="500" style="fill:none;stroke:black;"/>
   <text width="107" height="20" x="462" y="514" style="fill:black;" font-family="Arial" font-size="16px">email</text>
   <rect width="107" height="20" x="457" y="520" style="fill:none;stroke:black;"/>
   <text width="107" height="20" x="462" y="534" style="fill:black;" font-family="Arial" font-size="16px">password</text>
   <rect width="107" height="20" x="457" y="540" style="fill:none;stroke:black;"/>
   <text width="107" height="20" x="462" y="554" style="fill:black;" font-family="Arial" font-size="16px">fecha_registro</text>
   <rect width="107" height="20" x="457" y="560" style="fill:none;stroke:black;"/>
   <text width="107" height="20" x="462" y="574" style="fill:black;" font-family="Arial" font-size="16px">activo</text>
   <rect width="157" height="20" x="741" y="405" style="fill:#007;stroke:black;"/>
   <text width="157" height="20" x="746" y="419" style="fill:#fff;" font-family="Arial" font-size="16px"> usuario_privilegio</text>
   <rect width="157" height="20" x="741" y="425" style="fill:#aea;stroke:black;"/>
   <text width="157" height="20" x="746" y="439" style="fill:black;" font-family="Arial" font-size="16px">id_users_privilegio</text>
   <rect width="157" height="20" x="741" y="445" style="fill:none;stroke:black;"/>
   <text width="157" height="20" x="746" y="459" style="fill:black;" font-family="Arial" font-size="16px">usuarios_id</text>
   <rect width="157" height="20" x="741" y="465" style="fill:none;stroke:black;"/>
   <text width="157" height="20" x="746" y="479" style="fill:black;" font-family="Arial" font-size="16px">privilegio_idPrivilegio</text>
   <rect width="103" height="20" x="202" y="390" style="fill:#007;stroke:black;"/>
   <text width="103" height="20" x="207" y="404" style="fill:#fff;" font-family="Arial" font-size="16px"> usuario_rol</text>
   <rect width="103" height="20" x="202" y="410" style="fill:#aea;stroke:black;"/>
   <text width="103" height="20" x="207" y="424" style="fill:black;" font-family="Arial" font-size="16px">id_role_user</text>
   <rect width="103" height="20" x="202" y="430" style="fill:none;stroke:black;"/>
   <text width="103" height="20" x="207" y="444" style="fill:black;" font-family="Arial" font-size="16px">roles_idRoles</text>
   <rect width="103" height="20" x="202" y="450" style="fill:none;stroke:black;"/>
   <text width="103" height="20" x="207" y="464" style="fill:black;" font-family="Arial" font-size="16px">usuarios_id</text>
</svg>
